<svg width="26" height="30" viewBox="0 0 26 30" fill="none" xmlns="http://www.w3.org/2000/svg">
<path fill-rule="evenodd" clip-rule="evenodd" d="M13.0542 0H12.9472C7.89347 0 3.25981 3.66684 2.81027 8.52144C2.78029 8.86872 2.75986 9.22358 2.74666 9.60586L2.72819 10.4996L2.72453 11.3009L2.7471 11.2096C2.53854 12.2266 2.05787 13.1699 1.3548 13.9407L1.25404 14.0703C0.652055 14.9848 0.306164 16.0433 0.252625 17.1363L0.251356 17.4937C0.220622 18.9312 0.713229 20.3537 1.63994 21.4835C2.89666 22.8104 4.52344 23.6019 6.26944 23.7699C10.735 24.2548 15.253 24.2548 19.731 23.7686C21.4651 23.609 23.0967 22.8151 24.3007 21.5373C25.2099 20.4496 25.706 19.1445 25.7485 17.7931L25.75 17.1881C25.7002 16.047 25.3522 14.9875 24.7429 14.077L24.6504 13.9582L24.4244 13.6923C23.9164 13.0579 23.5454 12.327 23.3344 11.5453L23.2675 11.2647L23.2537 10.9703C23.2495 10.8379 23.2475 10.6911 23.2468 10.5077L23.2466 9.49809C23.2432 9.11187 23.2317 8.83722 23.205 8.52805C22.7402 3.66428 18.1052 0 13.0542 0ZM12.9472 2.09302H13.0542C17.1004 2.09302 20.7916 5.01113 21.1461 8.7199C21.1671 8.96338 21.1764 9.19566 21.1792 9.54075L21.1833 10.8977C21.1878 11.1147 21.1963 11.2952 21.2109 11.4983L21.2302 11.6373L21.3275 12.0509C21.616 13.1453 22.134 14.1661 22.8471 15.0463L23.0539 15.2888L23.031 15.2508C23.4265 15.8419 23.6519 16.5278 23.6834 17.2352L23.6823 17.4804C23.7062 18.4645 23.3799 19.3996 22.7626 20.14C21.9468 21.003 20.7806 21.5704 19.527 21.6858C15.1791 22.1578 10.8089 22.1578 6.47752 21.6875C5.21024 21.5655 4.04322 20.9977 3.18053 20.0896C2.6213 19.4034 2.29853 18.4714 2.31879 17.5161L2.31903 17.1881L2.34523 16.9024C2.40834 16.4243 2.56808 15.9397 2.81567 15.4936L2.94123 15.2858C3.86169 14.2506 4.49338 12.9917 4.77161 11.635L4.79319 11.4223L4.80298 10.0434L4.82706 9.3438C4.83799 9.12311 4.85197 8.91342 4.86951 8.71017C5.21205 5.0113 8.89977 2.09302 12.9472 2.09302ZM2.94123 15.2858C2.91897 15.3109 2.89654 15.3358 2.87394 15.3605L2.94784 15.2749L2.94123 15.2858ZM16.9119 26.5359C16.4671 26.1736 15.8163 26.245 15.4584 26.6953C15.3033 26.8905 15.1237 27.0656 14.9238 27.2164C14.2461 27.7479 13.4004 27.9846 12.5596 27.8845C11.72 27.7845 10.9569 27.3571 10.4391 26.6992C10.0833 26.2472 9.43283 26.1727 8.98626 26.5328C8.53969 26.893 8.4661 27.5514 8.82188 28.0034C9.68051 29.0944 10.9387 29.7988 12.318 29.9631C13.696 30.1273 15.0836 29.739 16.1751 28.8825C16.4991 28.6383 16.8048 28.3402 17.0694 28.0073C17.4273 27.557 17.3568 26.8982 16.9119 26.5359Z" fill="#D1E231"/>
</svg>
